<svg id="Layer_3" enable-background="new 0 0 64 64" height="512" viewBox="0 0 64 64" width="512" xmlns="http://www.w3.org/2000/svg"><g><path d="m32 21c-6.065 0-11 4.935-11 11 0 5.024 3.39 9.263 8 10.574v-4.604c-2.419-1.148-4-3.604-4-6.318 0-2.956 1.875-5.606 4.666-6.594.306-.107.646-.061.911.126.266.187.423.491.423.816v5.237l1 1 1-1v-5.237c0-.325.157-.629.423-.816.265-.188.605-.234.911-.126 2.791.987 4.666 3.637 4.666 6.593 0 2.714-1.581 5.17-4 6.318v4.604c4.61-1.31 8-5.549 8-10.574 0-6.064-4.935-10.999-11-10.999z"/><path d="m37 31.651c0-1.595-.766-3.065-2-3.993v3.993c0 .265-.105.52-.293.707l-2 2c-.391.391-1.023.391-1.414 0l-2-2c-.188-.187-.293-.441-.293-.707v-3.993c-1.234.928-2 2.398-2 3.993 0 2.11 1.34 4.002 3.334 4.709.399.142.666.519.666.943v5.647c.33.029.662.05 1 .05s.67-.021 1-.051v-5.647c0-.424.267-.801.666-.942 1.994-.707 3.334-2.598 3.334-4.709z"/><path d="m48.104 43.518c-.333-.333-.389-.853-.134-1.249 1.294-2.007 2.186-4.184 2.648-6.468.095-.466.505-.801.981-.801h1.401v-6h-1.401c-.476 0-.886-.335-.98-.801-.463-2.284-1.354-4.459-2.648-6.467-.255-.396-.199-.916.134-1.249l1.481-1.483-4.586-4.586-1.482 1.483c-.334.334-.853.388-1.249.134-2.009-1.294-4.185-2.186-6.468-2.649-.466-.095-.801-.505-.801-.981v-1.401h-6v1.401c0 .476-.335.885-.801.98-2.283.464-4.459 1.355-6.468 2.649-.397.254-.915.2-1.249-.134l-1.482-1.482-4.586 4.586 1.482 1.483c.333.333.389.853.134 1.249-1.294 2.007-2.186 4.183-2.648 6.467-.095.466-.505.801-.981.801h-1.401v6h1.401c.476 0 .886.335.98.801.463 2.284 1.354 4.461 2.648 6.468.255.396.199.916-.134 1.249l-1.481 1.482 4.586 4.586 1.482-1.482c.334-.334.852-.386 1.249-.134 2.009 1.295 4.185 2.186 6.468 2.648.466.095.801.505.801.981v1.401h6v-1.401c0-.476.335-.886.801-.98 2.283-.463 4.459-1.354 6.468-2.648.396-.252.915-.2 1.249.134l1.482 1.481 4.586-4.586zm-16.104 1.482c-7.168 0-13-5.832-13-13s5.832-13 13-13 13 5.832 13 13-5.832 13-13 13z"/><path d="m32 1c-.347 0-.69.005-1.034.017l.068 1.999c.32-.011.643-.016.966-.016 15.99 0 29 13.009 29 29 0 .324-.006.646-.016.968l1.998.064c.012-.343.018-.687.018-1.032 0-17.093-13.906-31-31-31z"/><path d="m7.376 16.673-1.695-1.06c-.359.575-.701 1.165-1.017 1.753l1.764.943c.298-.556.615-1.102.948-1.636z"/><path d="m9.587 13.597-1.545-1.271c-.429.521-.844 1.062-1.234 1.606l1.625 1.165c.368-.513.753-1.013 1.154-1.5z"/><path d="m5.586 20.008-1.82-.828c-.28.617-.542 1.246-.776 1.87l1.871.704c.222-.591.465-1.173.725-1.746z"/><path d="m4.251 23.547-1.914-.582c-.197.649-.374 1.309-.524 1.958l1.947.452c.143-.617.307-1.227.491-1.828z"/><path d="m12.178 10.833-1.367-1.461c-.494.462-.977.945-1.434 1.434l1.461 1.366c.431-.462.878-.908 1.34-1.339z"/><path d="m21.775 4.853-.705-1.871c-.63.237-1.26.499-1.873.777l.826 1.821c.575-.261 1.159-.503 1.752-.727z"/><path d="m29.14 3.139-.195-1.99c-.676.066-1.346.154-2.008.263l.324 1.974c.619-.103 1.246-.185 1.879-.247z"/><path d="m15.107 8.425-1.168-1.624c-.548.395-1.084.806-1.605 1.234l1.27 1.546c.488-.401.989-.787 1.503-1.156z"/><path d="m25.402 3.754-.453-1.948c-.663.155-1.322.331-1.958.525l.582 1.913c.602-.183 1.212-.347 1.829-.49z"/><path d="m18.324 6.42-.945-1.763c-.597.32-1.182.659-1.754 1.015l1.059 1.697c.535-.333 1.083-.649 1.64-.949z"/><path d="m3.39 27.235-1.973-.324c-.109.662-.198 1.332-.265 2.008l1.99.196c.063-.634.146-1.26.248-1.88z"/><path d="m32 61c-15.99 0-29-13.01-29-29 0-.324.006-.646.016-.968l-1.998-.064c-.012.343-.018.687-.018 1.032 0 17.094 13.906 31 31 31 .346 0 .689-.006 1.032-.018l-.064-1.998c-.322.01-.644.016-.968.016z"/><path d="m59.749 40.453 1.914.582c.196-.647.373-1.306.524-1.957l-1.947-.453c-.143.616-.307 1.227-.491 1.828z"/><path d="m51.822 53.169 1.367 1.459c.493-.462.972-.939 1.433-1.432l-1.459-1.367c-.432.461-.879.907-1.341 1.34z"/><path d="m58.414 43.991 1.82.828c.28-.615.541-1.245.776-1.87l-1.871-.705c-.222.592-.465 1.175-.725 1.747z"/><path d="m56.623 47.327 1.697 1.059c.358-.575.7-1.165 1.016-1.753l-1.764-.943c-.298.556-.615 1.102-.949 1.637z"/><path d="m34.86 60.861.195 1.99c.677-.066 1.347-.154 2.008-.264l-.324-1.973c-.62.103-1.247.185-1.879.247z"/><path d="m54.413 50.404 1.545 1.27c.429-.521.841-1.058 1.234-1.605l-1.625-1.166c-.368.512-.753 1.013-1.154 1.501z"/><path d="m60.611 36.766 1.973.324c.109-.663.198-1.332.265-2.007l-1.99-.197c-.063.632-.146 1.26-.248 1.88z"/><path d="m38.599 60.247.451 1.947c.662-.153 1.32-.329 1.959-.523l-.582-1.914c-.601.183-1.211.347-1.828.49z"/><path d="m42.225 59.147.705 1.871c.63-.237 1.26-.498 1.873-.777l-.826-1.82c-.575.26-1.159.503-1.752.726z"/><path d="m45.676 57.58.945 1.762c.596-.319 1.182-.658 1.753-1.015l-1.057-1.697c-.536.333-1.083.65-1.641.95z"/><path d="m48.893 55.573 1.168 1.625c.548-.395 1.084-.806 1.604-1.233l-1.268-1.547c-.489.4-.99.786-1.504 1.155z"/></g></svg>